<?xml version="1.0" encoding="utf-8"?>
<!-- Generator: Adobe Illustrator 16.0.0, SVG Export Plug-In . SVG Version: 6.00 Build 0)  -->
<!DOCTYPE svg PUBLIC "-//W3C//DTD SVG 1.1//EN" "http://www.w3.org/Graphics/SVG/1.1/DTD/svg11.dtd">
<svg version="1.1" id="Layer_1" xmlns="http://www.w3.org/2000/svg" xmlns:xlink="http://www.w3.org/1999/xlink" x="0px" y="0px"
	 width="172.63px" height="56.693px" viewBox="0 0 172.63 56.693" enable-background="new 0 0 172.63 56.693" xml:space="preserve">
<g>
	<path fill-rule="evenodd" clip-rule="evenodd" fill="#000006" d="M72.25,15.882l-0.815,3.815c-1.569-1.938-3.379-3.437-5.431-4.496
		c-2.052-1.06-4.828-1.59-8.328-1.59c-3.379,0-6.548,0.908-9.505,2.725c-2.957,1.817-5.325,4.375-7.106,7.675
		c-1.78,3.3-2.67,7.129-2.67,11.49c0,6.903,1.826,12.11,5.477,15.622c3.65,3.512,8.402,5.268,14.257,5.268
		c5.009,0,9.414-1.997,13.216-5.993v5.993h12.673V15.882H72.25z M68.123,44.077c-1.508,1.139-3.315,1.781-5.423,1.928
		c-1.769,0.122-4.516-0.455-6.044-1.354c-1.651-0.975-2.971-2.344-3.958-4.108c-0.966-1.726-1.448-3.618-1.448-5.677
		c0-3.149,0.98-5.752,2.941-7.811c1.962-2.059,4.33-3.088,7.107-3.088c2.414,0,4.511,0.575,6.291,1.725
		c0.017,0.012,0.035,0.023,0.053,0.035c2.357,1.542,3.704,4.235,3.704,7.052v4.605C71.346,39.989,70.202,42.507,68.123,44.077"/>
	<path fill-rule="evenodd" clip-rule="evenodd" fill="#000006" d="M16.593,56.392c-3.294,0-6.374-0.582-9.241-1.745
		c-2.866-1.162-5.245-2.784-7.136-4.865l5.307-7.068c3.537,3.305,6.861,4.957,9.971,4.957c1.648,0,2.974-0.26,3.981-0.78
		c1.006-0.521,1.51-1.3,1.51-2.341c0-1.225-0.58-2.157-1.739-2.801c-1.159-0.642-2.455-1.178-3.888-1.606
		c-1.434-0.428-2.395-0.703-2.882-0.826C9,38.215,6.406,36.577,4.698,34.404s-2.561-4.667-2.561-7.482
		c0-2.142,0.564-4.238,1.692-6.288c1.129-2.051,2.882-3.734,5.261-5.05s5.337-1.973,8.875-1.973c3.294,0,6.1,0.336,8.417,1.009
		c2.318,0.674,4.544,1.775,6.679,3.305l-4.849,7.528c-1.22-0.979-2.577-1.79-4.071-2.433c-1.494-0.642-2.852-0.963-4.071-0.963
		c-1.464,0-2.654,0.306-3.569,0.917c-0.915,0.613-1.372,1.347-1.372,2.204c-0.061,1.285,0.473,2.249,1.601,2.892
		c1.129,0.642,2.882,1.3,5.26,1.974c0.367,0.122,0.748,0.244,1.144,0.367c0.396,0.122,0.809,0.244,1.235,0.367
		c6.283,2.081,9.424,5.875,9.424,11.384c0,2.57-0.64,4.927-1.922,7.068c-1.28,2.142-3.216,3.871-5.809,5.188
		C23.47,55.733,20.314,56.392,16.593,56.392"/>
	<path fill="#1FC0DA" d="M114.18,46.005c2.107-0.146,3.915-0.789,5.421-1.928c2.079-1.57,3.222-4.09,3.222-6.693v-4.606
		c0-2.816-1.347-5.509-3.702-7.052c-0.019-0.011-0.035-0.023-0.054-0.034c-1.779-1.151-3.878-1.726-6.292-1.726
		c-2.774,0-5.144,1.029-7.104,3.088s-2.943,4.662-2.943,7.811c0,2.06,0.484,3.951,1.45,5.678c0.987,1.766,2.306,3.135,3.958,4.108
		C109.663,45.551,112.41,46.128,114.18,46.005 M135.496,15.882v40.51h-12.674v-5.995c-3.802,3.996-8.206,5.995-13.216,5.995
		c-5.853,0-10.604-1.757-14.257-5.268c-3.651-3.514-5.476-8.721-5.476-15.623c0-4.36,0.891-8.19,2.671-11.49
		s4.147-5.858,7.104-7.675c2.957-1.816,6.125-2.725,9.505-2.725c3.5,0,6.276,0.53,8.327,1.59c2.053,1.059,3.863,2.558,5.433,4.496
		l0.813-3.815H135.496z"/>
	<path fill="#1FC0DA" d="M159.561,49.804c0-1.816,0.664-3.376,1.99-4.678c1.328-1.302,2.837-1.952,4.527-1.952
		c1.568,0,3.016,0.65,4.344,1.952c1.327,1.302,1.992,2.861,1.992,4.678c0,1.877-0.648,3.437-1.947,4.678
		c-1.297,1.241-2.761,1.862-4.389,1.862c-1.69,0-3.199-0.606-4.527-1.817C160.225,53.315,159.561,51.74,159.561,49.804"/>
	<polygon fill="#000006" points="154.025,0.302 154.025,15.882 141.352,15.882 141.352,6.915 	"/>
	<rect x="141.353" y="15.881" fill="#1FC0DA" width="12.673" height="40.51"/>
</g>
</svg>
